<?xml version="1.0" encoding="UTF-8" standalone="no"?>
<!-- Created with Inkscape (http://www.inkscape.org/) -->

<svg
   width="210mm"
   height="297mm"
   viewBox="0 0 210 297"
   version="1.1"
   id="svg1"
   inkscape:version="1.4 (86a8ad7, 2024-10-11)"
   sodipodi:docname="img.svg"
   xmlns:inkscape="http://www.inkscape.org/namespaces/inkscape"
   xmlns:sodipodi="http://sodipodi.sourceforge.net/DTD/sodipodi-0.dtd"
   xmlns="http://www.w3.org/2000/svg"
   xmlns:svg="http://www.w3.org/2000/svg">
  <sodipodi:namedview
     id="namedview1"
     pagecolor="#ffffff"
     bordercolor="#000000"
     borderopacity="0.25"
     inkscape:showpageshadow="2"
     inkscape:pageopacity="0.0"
     inkscape:pagecheckerboard="0"
     inkscape:deskcolor="#d1d1d1"
     inkscape:document-units="mm"
     inkscape:zoom="1.0195312"
     inkscape:cx="511.50958"
     inkscape:cy="384"
     inkscape:window-width="1920"
     inkscape:window-height="1001"
     inkscape:window-x="-9"
     inkscape:window-y="-9"
     inkscape:window-maximized="1"
     inkscape:current-layer="layer1" />
  <defs
     id="defs1" />
  <g
     inkscape:label="Layer 1"
     inkscape:groupmode="layer"
     id="layer1">
    <path
       style="fill:#000000;stroke-width:0.264583"
       id="path21"
       d="m 25.575409,34.691677 c 0.13665,0.151966 0.28136,0.297053 0.409948,0.455898 1.057573,1.306428 1.986742,2.721015 2.935487,4.105545 1.865112,2.721806 1.148136,1.669992 2.974896,4.374737 0.43067,0.628885 0.86134,1.257771 1.292011,1.886656 0,0 3.272972,1.424295 3.272972,1.424295 v 0 C 36.012008,46.30376 35.563294,45.668713 35.114581,45.033665 33.131908,42.105807 31.229167,39.125278 29.233098,36.206742 Z" />
    <path
       style="fill:#000000;stroke-width:0.264583"
       id="path22"
       d="m 25.927364,51.183489 c 3.879292,-0.342768 7.776202,-0.417399 11.668123,-0.482153 2.588096,-0.0454 5.175128,-0.07497 7.756919,0.128299 1.184344,0.0949 2.373053,0.11211 3.560424,0.136343 1.339537,0.164047 3.810217,1.160584 -2.392532,-1.554808 -0.100664,-0.04407 0.04492,0.226975 0.0057,0.329607 -0.1065,0.278408 -0.258617,0.540409 -0.431387,0.783318 -0.348726,0.490302 -0.752002,0.939426 -1.128001,1.409141 -3.345638,3.842404 -7.298367,7.085547 -11.416832,10.058813 -1.730271,1.203044 -0.92633,0.644527 -2.411655,1.675794 0,0 3.186138,2.01763 3.186138,2.01763 v 0 c 1.384359,-1.096989 0.62914,-0.506362 2.2699,-1.76644 4.048956,-3.110508 7.962519,-6.408891 11.502165,-10.097373 0.635879,-0.674034 1.447327,-1.381032 1.880984,-2.246664 0.09873,-0.197073 0.34408,-0.49734 0.174276,-0.637876 -1.951583,-1.615181 -2.578899,-2.201773 -4.390983,-2.269345 -1.176827,-0.01466 -2.35281,-0.05517 -3.527276,-0.133366 -2.520895,-0.106164 -5.04071,0.0046 -7.562054,0.05132 -3.959558,0.09392 -7.91841,0.210161 -11.876882,0.341362 z" />
    <path
       style="fill:#000000;stroke-width:0.264583"
       id="path23"
       d="m 51.204891,60.409505 c 3.423105,1.663737 6.858826,3.304225 10.241013,5.050252 0,0 -2.847221,-2.281057 -2.847221,-2.281057 v 0 C 55.168154,61.454479 51.696447,59.813348 48.274911,58.070747 Z" />
    <path
       style="fill:#000000;stroke-width:0.264583"
       id="path24"
       d="m 31.936623,72.319713 c 2.79553,0.06486 5.593567,0.07001 8.390118,0.0854 4.146158,0.0013 8.282717,-0.325112 12.41062,-0.68181 2.472713,-0.207867 4.932288,-0.533278 7.409211,-0.691086 1.102186,-0.09583 2.206641,-0.158795 3.311179,-0.219155 0,0 -3.085283,-2.214163 -3.085283,-2.214163 v 0 c -1.108673,0.06915 -2.217338,0.138512 -3.325669,0.213014 -2.438472,0.174291 -4.852832,0.554125 -7.285422,0.790445 -4.11045,0.397753 -8.23569,0.706911 -12.368431,0.66721 -2.874854,-0.03558 -5.763118,-0.01992 -8.625483,-0.313147 z" />
    <path
       style="fill:#000000;stroke-width:0.264583"
       id="path25"
       d="m 45.97618,71.351393 c -0.0077,1.732772 -0.137843,3.459033 -0.304557,5.182611 0,0 3.350363,1.746705 3.350363,1.746705 v 0 c 0.154562,-1.704898 0.307875,-3.409516 0.441153,-5.115949 z" />
    <path
       style="fill:#000000;stroke-width:0.264583"
       id="path26"
       d="m 40.492486,79.74032 c 4.329541,-0.425048 8.67763,-0.641435 13.019659,-0.901623 2.037461,-0.09579 4.072411,-0.235316 6.108221,-0.359598 0.210606,-0.01286 2.126925,-0.159528 2.488819,-0.07389 0.272926,0.06458 0.487209,0.277961 0.730814,0.416941 -0.934331,-0.423543 -1.779654,-1.198904 -2.802991,-1.27063 -0.365725,-0.02564 0.18193,0.719754 0.172511,1.086258 -0.01389,0.539932 -0.118697,1.076282 -0.24162,1.602218 -0.538234,2.302905 -1.523921,4.51911 -2.375739,6.715591 -0.29175,0.716552 -0.583498,1.433105 -0.875249,2.14966 0,0 3.114363,1.738342 3.114363,1.738342 v 0 c 0.280979,-0.723437 0.561959,-1.446877 0.842938,-2.170314 0.610317,-1.554213 1.253739,-3.095643 1.839442,-4.659299 0.398359,-1.063509 0.945925,-2.517047 1.081712,-3.689062 0.04733,-0.408559 0.250309,-0.93795 -0.03587,-1.233357 -1.062591,-1.096857 -2.488383,-1.771076 -3.732575,-2.656613 -0.265981,-0.08675 -0.520102,-0.227467 -0.797947,-0.260247 -0.334801,-0.0395 -2.218737,0.148228 -2.400323,0.163743 -1.993117,0.170294 -3.987575,0.326266 -5.984568,0.444209 -4.438703,0.299035 -8.879824,0.545057 -13.326869,0.68085 z" />
    <path
       style="fill:#000000;stroke-width:0.264583"
       id="path27"
       d="m 86.730894,43.85729 c 1.91792,0.566907 3.80723,1.236689 5.633638,2.052553 0.529249,0.243875 1.065001,0.462452 1.580026,0.734843 0,0 -3.060417,-2.445451 -3.060417,-2.445451 v 0 c -0.506947,-0.232082 -1.020604,-0.447884 -1.531617,-0.670904 -1.880439,-0.780986 -3.806481,-1.442061 -5.739966,-2.07855 z" />
    <path
       style="fill:#000000;stroke-width:0.264583"
       id="path28"
       d="m 81.230427,51.249992 c 2.60305,-0.04664 5.192993,-0.381606 7.778488,-0.662524 4.58045,-0.476478 9.169489,-0.850096 13.769195,-1.073145 0,0 -3.005115,-2.15474 -3.005115,-2.15474 v 0 c -4.554204,0.352163 -9.103725,0.755173 -13.652531,1.170934 -2.690553,0.22143 -5.390211,0.497867 -8.093311,0.39216 z" />
    <path
       style="fill:#000000;stroke-width:0.264583"
       id="path29"
       d="m 95.009942,54.126574 c -1.859311,0.210222 -3.719954,0.57636 -5.52863,1.060566 -1.083976,0.290195 -1.966039,0.616297 -3.020367,0.981972 -1.609973,0.77111 -3.539016,1.33594 -4.658709,2.832785 -0.15353,0.205246 -0.264827,0.438923 -0.39724,0.658384 -0.04424,0.277125 -0.130392,0.550749 -0.13271,0.831371 -0.0084,1.021766 0.553273,2.147494 1.313784,2.814971 0.198601,0.174308 0.431514,0.30512 0.647274,0.457679 1.390552,0.732544 2.74335,1.541738 4.171659,2.197629 0.268856,0.123463 1.959019,0.324647 2.208821,0.350856 1.154718,0.121153 2.281525,0.129389 3.439667,0.08558 0.7599,-0.104579 1.288021,-0.121034 2.000282,-0.447778 1.560857,-0.716039 3.023291,-2.1238 4.262451,-3.288991 1.082736,-1.132591 2.123776,-2.257393 2.475096,-3.821305 0.0835,-0.658027 -0.0969,-1.209651 -0.52869,-1.698136 0,0 -3.657268,-1.483254 -3.657268,-1.483254 v 0 c 0.492305,0.312148 0.748615,0.741762 0.735034,1.340065 -0.226076,1.470194 -1.252802,2.626325 -2.223781,3.69072 -1.253493,1.204534 -2.560846,2.455058 -4.207438,3.109362 -0.682705,0.271288 -1.217457,0.290002 -1.934777,0.377375 -1.141896,0.03041 -2.254498,0.01368 -3.390384,-0.130757 -0.382682,-0.04866 -0.765267,-0.102386 -1.143447,-0.178511 -0.353914,-0.07124 -1.314497,-0.509477 -1.050589,-0.263137 0.70448,0.657591 1.624187,1.037731 2.436284,1.556597 -0.223015,-0.125635 -0.460092,-0.229058 -0.669047,-0.376904 -0.77012,-0.544899 -1.396569,-1.543809 -1.470911,-2.497349 -0.01797,-0.230264 0.04152,-0.460058 0.06229,-0.690086 0.116634,-0.199734 0.213421,-0.412467 0.349904,-0.599197 1.050713,-1.437521 2.911242,-2.012995 4.442692,-2.744936 2.775747,-0.983001 5.669913,-1.786257 8.63458,-1.825461 z" />
    <path
       style="fill:#000000;stroke-width:0.264583"
       id="path30"
       d="m 109.31606,37.823759 c 0.0563,3.680266 -0.0874,7.360102 -0.31626,11.03249 -0.25863,3.82135 -0.63237,7.634911 -1.03442,11.443678 -0.17173,1.7922 -0.36915,3.582781 -0.60425,5.367875 0,0 3.45733,1.80539 3.45733,1.80539 v 0 c 0.12708,-1.814812 0.34065,-3.621395 0.48245,-5.434915 0.30448,-3.850328 0.51581,-7.708405 0.8343,-11.55795 0.25952,-3.620937 0.37279,-7.25066 0.6933,-10.86689 z" />
    <path
       style="fill:#000000;stroke-width:0.264583"
       id="path31"
       d="m 113.94546,58.462399 c 2.30961,-0.562325 4.62909,-1.079614 6.95895,-1.551623 0.80295,-0.149656 1.6059,-0.299315 2.40884,-0.448971 0,0 -2.90264,-2.0295 -2.90264,-2.0295 v 0 c -0.80886,0.145926 -1.61771,0.291854 -2.42657,0.437782 -2.42928,0.41433 -4.84553,0.895562 -7.27422,1.310921 z" />
    <path
       style="fill:#000000;stroke-width:0.264583"
       id="path32"
       d="m 141.23572,42.163576 c 2.00288,0.210458 4.00053,0.466093 6.00033,0.704496 0.82541,0.114831 1.64856,0.24493 2.47244,0.370091 0,0 -3.10022,-2.320459 -3.10022,-2.320459 v 0 c -0.80632,-0.108001 -1.61218,-0.219631 -2.41975,-0.318035 -2.05151,-0.231402 -4.09785,-0.50677 -6.14671,-0.756605 z" />
    <path
       style="fill:#000000;stroke-width:0.264583"
       id="path33"
       d="m 131.94145,54.10813 c 5.89306,-1.546482 11.8919,-2.620632 17.87649,-3.73855 3.83705,-0.704278 7.68549,-1.34204 11.54183,-1.93046 0,0 -2.95038,-2.06851 -2.95038,-2.06851 v 0 c -3.76743,0.70994 -7.5336,1.42684 -11.30761,2.101337 -6.10423,1.144537 -12.2098,2.278975 -18.3092,3.448433 z" />
    <path
       style="fill:#000000;stroke-width:0.264583"
       id="path34"
       d="m 156.3272,52.955062 c -2.87349,0.641173 -5.41938,2.164752 -7.86814,3.738333 -2.79687,1.797272 -3.77028,2.542415 -6.46079,4.465169 -2.267,1.658458 -4.48747,3.419316 -6.42828,5.459701 -0.36237,0.380965 -1.38888,1.48563 -1.55217,2.152435 -0.0614,0.250836 0.0629,0.512652 0.0944,0.768975 1.40451,0.820655 2.72305,1.810371 4.21353,2.461963 0.71339,0.31187 3.60237,-0.03983 4.04926,-0.08871 2.04867,-0.224081 3.23575,-0.409321 5.2473,-0.85144 0.79334,-0.174368 1.57695,-0.39039 2.36542,-0.585584 2.22487,-0.622567 4.4004,-1.536729 6.06507,-3.189022 0.741,-0.735489 0.88296,-1.058842 1.43091,-1.917587 0.92116,-1.667573 1.14171,-3.557177 1.26578,-5.42554 0,0 -3.43292,-1.771671 -3.43292,-1.771671 v 0 c -0.068,1.818359 -0.23878,3.652723 -1.10723,5.289957 -0.19402,0.312423 -0.36608,0.639601 -0.58206,0.937268 -1.5798,2.177312 -4.05406,3.308382 -6.56187,4.061534 -0.77322,0.197683 -1.54037,0.420815 -2.31964,0.593053 -1.83515,0.405604 -3.37777,0.651362 -5.25575,0.788347 -0.81095,0.05915 -1.62605,0.114999 -2.43817,0.07494 -0.57385,-0.0283 -1.92967,-0.806127 -1.7009,-0.279085 0.36459,0.839947 1.50566,1.042451 2.2585,1.563677 -0.0931,-0.183711 -0.29339,-0.345689 -0.27918,-0.551132 0.0446,-0.644298 1.02205,-1.81937 1.30807,-2.157005 1.79075,-2.113918 3.92963,-3.905591 6.12689,-5.576779 4.07374,-2.933261 8.56726,-6.250459 13.51731,-7.514953 0.39787,-0.101634 0.80897,-0.141739 1.21345,-0.212611 z" />
    <path
       style="fill:#000000;stroke-width:0.264583"
       id="path35"
       d="m 163.10263,47.488511 c 0.18917,4.539623 0.1335,9.085281 0.0572,13.626857 -0.0825,1.694103 0.003,3.399007 -0.12712,5.091078 0,0 3.51825,1.792639 3.51825,1.792639 v 0 c -0.12355,-1.735971 -0.0494,-3.482808 -0.12713,-5.220626 -0.0747,-4.522097 -0.13495,-9.048535 0.0572,-13.568571 z" />
    <path
       style="fill:#000000;stroke-width:0.264583"
       id="path36"
       d="m 169.15327,61.119776 c 2.71439,-1.295855 5.51951,-2.38991 8.33052,-3.455522 0.61734,-0.23445 1.2511,-0.414562 1.87221,-0.637442 0,0 -3.24342,-2.182164 -3.24342,-2.182164 v 0 c -0.59606,0.236757 -1.20156,0.447844 -1.79106,0.70136 -2.7698,1.172408 -5.5362,2.354995 -8.3333,3.460956 z" />
    <path
       style="fill:#000000;stroke-width:0.264583"
       id="path37"
       d="m 149.90367,75.909846 c -1.27383,2.29429 -2.44485,4.64611 -3.74532,6.925667 -1.38781,2.432662 -1.8426,3.076187 -3.34372,5.417167 -1.16382,1.772478 -2.37154,3.511058 -3.43013,5.348703 0,0 3.26685,1.85711 3.26685,1.85711 v 0 c 0.16322,-0.39756 0.29157,-0.811292 0.48965,-1.192686 0.54237,-1.044334 2.07032,-3.415906 2.62278,-4.293124 1.81042,-2.856857 1.59971,-2.496857 3.37814,-5.415544 1.36222,-2.235632 2.65291,-4.521737 4.15199,-6.670389 z" />
    <path
       style="fill:#000000;stroke-width:0.264583"
       id="path38"
       d="m 163.5071,77.367251 c -0.35793,0.793594 -0.68727,1.600713 -1.07379,2.380779 -0.9958,2.009664 -2.11406,3.926541 -3.25393,5.856285 -1.26921,2.14872 -2.59298,4.248065 -3.99319,6.312725 -0.30137,0.368242 -0.60275,0.736484 -0.90413,1.104723 0,0 3.20827,1.907188 3.20827,1.907188 v 0 c 0.27863,-0.393187 0.55726,-0.786376 0.83589,-1.179563 2.90286,-4.799174 5.59343,-9.723993 8.50031,-14.521257 z" />
    <path
       style="fill:#000000;stroke-width:0.264583"
       id="path39"
       d="m 152.52291,87.093559 c 2.69856,-1.301552 5.56009,-2.225837 8.40482,-3.148375 0.98492,-0.261141 1.93684,-0.63759 2.9233,-0.893186 0.19879,-0.0515 0.39771,-0.114718 0.60264,-0.127833 0.14093,-0.009 0.54008,0.135191 0.41904,0.06245 -1.01099,-0.607507 -2.07557,-1.120989 -3.11336,-1.681483 0.0265,0.09195 0.095,0.181388 0.0796,0.275855 -0.085,0.522936 -0.46986,0.891191 -0.77234,1.290886 0,0 3.2777,1.957427 3.2777,1.957427 v 0 c 0.59612,-0.719267 1.01793,-1.148156 1.08569,-2.109329 -1.24072,-0.681411 -2.44586,-1.432047 -3.72216,-2.044229 -0.16414,-0.07873 -0.96566,0.186729 -1.03891,0.209785 -0.94903,0.298683 -1.87311,0.671277 -2.82171,0.971375 -2.86667,1.007793 -5.74498,1.983746 -8.58812,3.056864 z" />
    <path
       style="fill:#000000;stroke-width:0.264583"
       id="path40"
       d="m 144.44546,94.795585 c 3.47557,-0.768697 6.93849,-1.593829 10.384,-2.487539 1.50021,-0.368744 2.97685,-0.823401 4.45968,-1.254688 0,0 -3.09979,-2.115534 -3.09979,-2.115534 v 0 c -1.4479,0.457729 -2.89354,0.925536 -4.36487,1.304224 -3.47671,0.94947 -6.99345,1.844812 -10.57779,2.269884 z" />
    <path
       style="fill:#000000;stroke-width:0.264583"
       id="path41"
       d="m 34.884524,104.99686 c -0.144952,0.39708 -0.30311,0.78959 -0.434854,1.19125 -1.342943,4.0943 -2.4024,8.29096 -3.472913,12.46236 -0.379161,1.53609 -0.548163,2.18751 -0.884946,3.66423 -0.173403,0.76033 -0.681559,2.41901 0.230635,3.02086 1.383455,0.91278 2.902934,1.60046 4.354401,2.40068 0.544838,0.0829 1.08644,0.1909 1.634516,0.24857 1.670082,0.17574 2.978063,0.17982 4.678447,0.15752 2.624601,-0.0344 5.238359,-0.20619 7.854381,-0.40478 2.55678,-0.22729 1.342446,-0.10061 3.644064,-0.36971 0,0 -3.020139,-2.13557 -3.020139,-2.13557 v 0 c -2.216669,0.31422 -1.044985,0.16404 -3.516442,0.43957 -2.600108,0.22798 -5.19258,0.4112 -7.80537,0.39715 -1.586388,-0.009 -3.205705,-0.0623 -4.778197,-0.30679 -0.557885,-0.0867 -1.102519,-0.24391 -1.653779,-0.36587 0.711473,0.48565 1.380311,1.04056 2.134418,1.45694 0.241385,0.13327 -0.456941,-0.34591 -0.574183,-0.59548 -0.309763,-0.65936 -0.04203,-1.57368 0.06784,-2.20129 0.284914,-1.62749 0.381122,-2.01527 0.73723,-3.73015 0.967206,-4.16087 2.023708,-8.33827 3.656542,-12.29767 0.157072,-0.38088 0.348474,-0.74667 0.52271,-1.12 z" />
    <path
       style="fill:#000000;stroke-width:0.264583"
       id="path42"
       d="m 78.61742,106.16715 c -3.394771,6.89776 -7.408275,13.466 -11.429867,20.01032 -0.916043,1.45787 -1.826856,2.91846 -2.771841,4.35773 0,0 3.268117,1.89447 3.268117,1.89447 v 0 c 0.827251,-1.50996 1.647452,-3.02386 2.498966,-4.52039 3.743544,-6.7123 7.572454,-13.3786 11.545091,-19.95819 z" />
    <path
       style="fill:#000000;stroke-width:0.264583"
       id="path43"
       d="m 97.077005,115.81514 c 2.64223,-0.52768 5.347295,-0.66131 8.028565,-0.85264 4.27751,-0.30524 2.6012,-0.19162 6.80484,-0.45205 0,0 -2.74641,-1.96831 -2.74641,-1.96831 v 0 c -5.10664,0.34682 -10.222863,0.55761 -15.322635,0.99161 z" />
    <path
       style="fill:#000000;stroke-width:0.264583"
       id="path44"
       d="m 94.603571,114.82738 c -1.140714,2.05933 -2.159489,4.18407 -3.275922,6.25618 -1.124516,2.08711 -1.561804,2.76681 -2.799511,4.84263 -2.259431,3.69731 -0.920645,1.52993 -3.116131,5.03488 -0.415575,0.66344 -0.863856,1.30761 -1.24484,1.9915 -0.318421,0.57158 -1.009187,1.95693 -1.030415,2.73947 -0.0077,0.28393 0.160145,0.54501 0.240218,0.81752 1.469649,0.73806 2.838783,1.72512 4.408948,2.21419 0.565936,0.17628 4.499255,-0.83101 4.60321,-0.85808 1.243827,-0.32395 2.475558,-0.6927 3.712453,-1.04218 4.173419,-1.1792 4.763339,-1.35428 8.947369,-2.55785 3.42872,-0.9745 6.84911,-1.97696 10.25415,-3.03119 1.65956,-0.51381 3.28691,-1.04151 4.89786,-1.68964 0,0 -3.12638,-2.08578 -3.12638,-2.08578 v 0 c -4.71117,2.09127 -9.69622,3.50643 -14.60569,5.04009 -4.284839,1.22691 -8.574328,2.45513 -12.938363,3.37683 -0.916469,0.19357 -1.835605,0.38699 -2.765906,0.49618 -0.657331,0.0771 -2.027949,-0.59904 -1.984584,0.0614 0.0587,0.89399 1.399241,1.11928 2.09886,1.67893 -0.136644,-0.21294 -0.376618,-0.388 -0.409932,-0.6388 -0.09467,-0.71277 0.539356,-2.24272 0.780851,-2.7348 0.344081,-0.7011 0.76776,-1.36036 1.164432,-2.03312 1.162886,-1.97225 1.873128,-3.07939 3.101673,-5.04574 0.513961,-0.83165 1.041897,-1.65483 1.541883,-2.49495 1.650286,-2.77298 3.088868,-5.6798 4.920872,-8.3414 z" />
    <path
       style="fill:#000000;stroke-width:0.264583"
       id="path45"
       d="m 137.74255,117.84961 c -0.5951,1.21326 -1.1705,2.4364 -1.78532,3.63979 -1.32476,2.59298 -2.81805,5.29348 -4.23354,7.84069 -1.46627,2.6386 -2.96324,5.2491 -4.53977,7.82283 -0.20976,0.29164 -0.92858,1.54721 -1.53362,1.76617 -0.086,0.0311 -0.14096,-0.11645 -0.21144,-0.17467 0,0 3.18407,2.33939 3.18407,2.33939 v 0 c 0.10413,-0.0489 0.22812,-0.0684 0.31238,-0.14674 0.52204,-0.48533 1.03621,-1.4914 1.34231,-1.9992 3.46662,-6.46997 6.72799,-13.05543 10.53966,-19.33527 z" />
    <path
       style="fill:#000000;stroke-width:0.264583"
       id="path46"
       d="m 136.29042,129.31109 c 3.77671,-1.02507 7.65214,-1.60963 11.51025,-2.23174 2.90594,-0.43612 1.51292,-0.23589 4.17845,-0.60486 0,0 -2.9813,-2.09818 -2.9813,-2.09818 v 0 c -2.593,0.42909 -1.23493,0.20178 -4.07395,0.68344 -3.9531,0.65735 -7.90712,1.31468 -11.8604,1.96759 z" />
  </g>
</svg>
